<?xml version="1.0" encoding="UTF-8"?>
<!DOCTYPE svg PUBLIC "-//W3C//DTD SVG 1.1//EN" "http://www.w3.org/Graphics/SVG/1.1/DTD/svg11.dtd">
<!-- Creator: CorelDRAW -->
<svg xmlns="http://www.w3.org/2000/svg" xml:space="preserve" width="2048px" height="2048px" style="shape-rendering:geometricPrecision; text-rendering:geometricPrecision; image-rendering:optimizeQuality; fill-rule:evenodd; clip-rule:evenodd"
viewBox="0 0 2048 2048"
 xmlns:xlink="http://www.w3.org/1999/xlink">
 <defs>
  <style type="text/css">
    .fil1 {fill:none}
    .fil0 {fill-rule:nonzero}
  </style>
 </defs>
 <g id="Layer_x0020_1">
  <metadata id="CorelCorpID_0Corel-Layer"/>
  <polygon class="fil0" points="264.814,1008.73 448.022,691.41 448.073,691.44 631.226,374.207 640.111,358.819 657.586,358.819 1024,358.819 1390.41,358.819 1407.89,358.819 1416.77,374.207 1599.93,691.44 1599.98,691.41 1783.19,1008.73 1792,1024 1783.19,1039.27 1599.98,1356.59 1599.93,1356.56 1416.77,1673.79 1407.89,1689.18 1390.41,1689.18 1024,1689.18 657.586,1689.18 640.111,1689.18 631.226,1673.79 448.073,1356.56 448.022,1356.59 264.814,1039.27 255.999,1024 "/>
  <g id="_244790136">
   <rect id="_244791024" class="fil1" width="2048" height="2048"/>
   <rect id="_244790712" class="fil1" x="255.999" y="255.999" width="1536" height="1536"/>
  </g>
 </g>
</svg>
